<svg width="30" height="29" viewBox="0 0 30 29" fill="none" xmlns="http://www.w3.org/2000/svg">
<path d="M9.33336 21.6154L14.5834 16.5635L19.8334 21.6154L21.8751 19.6507L16.625 14.5989L21.8751 9.54701L19.8334 7.5824L14.5834 12.6343L9.33336 7.5824L7.29169 9.54701L12.5417 14.5989L7.29169 19.6507L9.33336 21.6154ZM14.5834 28.6318C12.566 28.6318 10.6702 28.2635 8.89586 27.5267C7.12155 26.79 5.57814 25.7902 4.26564 24.5272C2.95313 23.2642 1.91407 21.7791 1.14844 20.0717C0.382814 18.3644 0 16.5401 0 14.5989C0 12.6577 0.382814 10.8334 1.14844 9.12602C1.91407 7.41868 2.95313 5.93352 4.26564 4.67056C5.57814 3.40759 7.12155 2.40774 8.89586 1.67101C10.6702 0.934283 12.566 0.565918 14.5834 0.565918C16.6007 0.565918 18.4966 0.934283 20.2709 1.67101C22.0452 2.40774 23.5886 3.40759 24.9011 4.67056C26.2136 5.93352 27.2527 7.41868 28.0183 9.12602C28.7839 10.8334 29.1667 12.6577 29.1667 14.5989C29.1667 16.5401 28.7839 18.3644 28.0183 20.0717C27.2527 21.7791 26.2136 23.2642 24.9011 24.5272C23.5886 25.7902 22.0452 26.79 20.2709 27.5267C18.4966 28.2635 16.6007 28.6318 14.5834 28.6318ZM14.5834 25.8252C17.8403 25.8252 20.599 24.7377 22.8594 22.5626C25.1199 20.3875 26.2501 17.7329 26.2501 14.5989C26.2501 11.4648 25.1199 8.81028 22.8594 6.63517C20.599 4.46006 17.8403 3.37251 14.5834 3.37251C11.3264 3.37251 8.56773 4.46006 6.30731 6.63517C4.04689 8.81028 2.91667 11.4648 2.91667 14.5989C2.91667 17.7329 4.04689 20.3875 6.30731 22.5626C8.56773 24.7377 11.3264 25.8252 14.5834 25.8252Z" fill="#FF0000" fill-opacity="0.75"/>
</svg>
