<svg width="48" height="48" viewBox="0 0 48 48" fill="none" xmlns="http://www.w3.org/2000/svg">
<path d="M6 21.5C4.61929 21.5 3.5 22.6193 3.5 24C3.5 25.3807 4.61929 26.5 6 26.5V24V21.5ZM42 26.5C43.3807 26.5 44.5 25.3807 44.5 24C44.5 22.6193 43.3807 21.5 42 21.5V24V26.5ZM6 9.5C4.61929 9.5 3.5 10.6193 3.5 12C3.5 13.3807 4.61929 14.5 6 14.5V12V9.5ZM42 14.5C43.3807 14.5 44.5 13.3807 44.5 12C44.5 10.6193 43.3807 9.5 42 9.5V12V14.5ZM6 33.5C4.61929 33.5 3.5 34.6193 3.5 36C3.5 37.3807 4.61929 38.5 6 38.5V36V33.5ZM42 38.5C43.3807 38.5 44.5 37.3807 44.5 36C44.5 34.6193 43.3807 33.5 42 33.5V36V38.5ZM6 24V26.5H42V24V21.5H6V24ZM6 12V14.5H42V12V9.5H6V12ZM6 36V38.5H42V36V33.5H6V36Z" fill="#1E1E1E"/>
</svg>
